REM DIRINDEX 1\2\5,1\2\6,1\2\7,1\2\8,1\3\9,1\3\10,1\3\11,1\4\12,1\4\13,1\4\14,1\4\15,1\4\16
REM DIRNAME cjc034,folder01,folder02,folder03,folder04,folder05,folder06,folder07,folder08,folder09,folder10,folder11,folder12,folder13,folder14,folder15
TITLE ""
FILE "1200_sec03_0993_1000.mp3" MP3
  TRACK 01 AUDIO
    TITLE "0:"
    INDEX 01 00:00:00
  TRACK 02 AUDIO
    TITLE "12:cjc034_07653"
    INDEX 01 00:00:17
  TRACK 03 AUDIO
    TITLE "0:"
    INDEX 01 00:01:32
  TRACK 04 AUDIO
    TITLE "13:cjc034_07654"
    INDEX 01 00:01:66
  TRACK 05 AUDIO
    TITLE "0:"
    INDEX 01 00:04:33
  TRACK 06 AUDIO
    TITLE "14:cjc034_07655"
    INDEX 01 00:04:66
  TRACK 07 AUDIO
    TITLE "0:"
    INDEX 01 00:06:06
  TRACK 08 AUDIO
    TITLE "15:cjc034_07656"
    INDEX 01 00:06:39
  TRACK 09 AUDIO
    TITLE "0:"
    INDEX 01 00:11:33
  TRACK 10 AUDIO
    TITLE "12:cjc034_07657"
    INDEX 01 00:12:65
  TRACK 11 AUDIO
    TITLE "0:"
    INDEX 01 00:14:00
  TRACK 12 AUDIO
    TITLE "13:cjc034_07658"
    INDEX 01 00:14:33
  TRACK 13 AUDIO
    TITLE "0:"
    INDEX 01 00:17:12
  TRACK 14 AUDIO
    TITLE "14:cjc034_07659"
    INDEX 01 00:17:47
  TRACK 15 AUDIO
    TITLE "0:"
    INDEX 01 00:18:56
  TRACK 16 AUDIO
    TITLE "15:cjc034_07660"
    INDEX 01 00:19:22
  TRACK 17 AUDIO
    TITLE "0:"
    INDEX 01 00:22:60
  TRACK 18 AUDIO
    TITLE "12:cjc034_07661"
    INDEX 01 00:24:20
  TRACK 19 AUDIO
    TITLE "0:"
    INDEX 01 00:25:27
  TRACK 20 AUDIO
    TITLE "13:cjc034_07662"
    INDEX 01 00:25:62
  TRACK 21 AUDIO
    TITLE "0:"
    INDEX 01 00:27:08
  TRACK 22 AUDIO
    TITLE "14:cjc034_07663"
    INDEX 01 00:27:43
  TRACK 23 AUDIO
    TITLE "0:"
    INDEX 01 00:28:53
  TRACK 24 AUDIO
    TITLE "15:cjc034_07664"
    INDEX 01 00:29:11
  TRACK 25 AUDIO
    TITLE "0:"
    INDEX 01 00:33:21
  TRACK 26 AUDIO
    TITLE "12:cjc034_07665"
    INDEX 01 00:34:53
  TRACK 27 AUDIO
    TITLE "0:"
    INDEX 01 00:35:66
  TRACK 28 AUDIO
    TITLE "13:cjc034_07666"
    INDEX 01 00:36:27
  TRACK 29 AUDIO
    TITLE "0:"
    INDEX 01 00:37:24
  TRACK 30 AUDIO
    TITLE "14:cjc034_07667"
    INDEX 01 00:37:57
  TRACK 31 AUDIO
    TITLE "0:"
    INDEX 01 00:38:71
  TRACK 32 AUDIO
    TITLE "15:cjc034_07668"
    INDEX 01 00:39:31
  TRACK 33 AUDIO
    TITLE "0:"
    INDEX 01 00:43:60
  TRACK 34 AUDIO
    TITLE "16:cjc034_07669"
    INDEX 01 00:45:18
  TRACK 35 AUDIO
    TITLE "0:"
    INDEX 01 00:51:03
  TRACK 36 AUDIO
    TITLE "12:cjc034_07670"
    INDEX 01 00:52:06
  TRACK 37 AUDIO
    TITLE "0:"
    INDEX 01 00:53:21
  TRACK 38 AUDIO
    TITLE "13:cjc034_07671"
    INDEX 01 00:53:55
  TRACK 39 AUDIO
    TITLE "0:"
    INDEX 01 00:54:56
  TRACK 40 AUDIO
    TITLE "14:cjc034_07672"
    INDEX 01 00:55:16
  TRACK 41 AUDIO
    TITLE "0:"
    INDEX 01 00:56:33
  TRACK 42 AUDIO
    TITLE "15:cjc034_07673"
    INDEX 01 00:56:71
  TRACK 43 AUDIO
    TITLE "0:"
    INDEX 01 01:01:11
  TRACK 44 AUDIO
    TITLE "12:cjc034_07674"
    INDEX 01 01:02:46
  TRACK 45 AUDIO
    TITLE "0:"
    INDEX 01 01:03:71
  TRACK 46 AUDIO
    TITLE "13:cjc034_07675"
    INDEX 01 01:04:33
  TRACK 47 AUDIO
    TITLE "0:"
    INDEX 01 01:05:69
  TRACK 48 AUDIO
    TITLE "14:cjc034_07676"
    INDEX 01 01:06:26
  TRACK 49 AUDIO
    TITLE "0:"
    INDEX 01 01:07:51
  TRACK 50 AUDIO
    TITLE "15:cjc034_07677"
    INDEX 01 01:08:11
  TRACK 51 AUDIO
    TITLE "0:"
    INDEX 01 01:11:07
  TRACK 52 AUDIO
    TITLE "12:cjc034_07678"
    INDEX 01 01:12:40
  TRACK 53 AUDIO
    TITLE "0:"
    INDEX 01 01:13:57
  TRACK 54 AUDIO
    TITLE "13:cjc034_07679"
    INDEX 01 01:14:17
  TRACK 55 AUDIO
    TITLE "0:"
    INDEX 01 01:17:08
  TRACK 56 AUDIO
    TITLE "14:cjc034_07680"
    INDEX 01 01:17:41
  TRACK 57 AUDIO
    TITLE "0:"
    INDEX 01 01:18:58
  TRACK 58 AUDIO
    TITLE "15:cjc034_07681"
    INDEX 01 01:19:23
  TRACK 59 AUDIO
    TITLE "0:"
    INDEX 01 01:23:11
  TRACK 60 AUDIO
    TITLE "12:cjc034_07682"
    INDEX 01 01:24:43
  TRACK 61 AUDIO
    TITLE "0:"
    INDEX 01 01:25:57
  TRACK 62 AUDIO
    TITLE "13:cjc034_07683"
    INDEX 01 01:26:13
  TRACK 63 AUDIO
    TITLE "0:"
    INDEX 01 01:27:36
  TRACK 64 AUDIO
    TITLE "14:cjc034_07684"
    INDEX 01 01:27:71
  TRACK 65 AUDIO
    TITLE "0:"
    INDEX 01 01:29:09
  TRACK 66 AUDIO
    TITLE "15:cjc034_07685"
    INDEX 01 01:29:45
  TRACK 67 AUDIO
    TITLE "0:"
    INDEX 01 01:32:23
